<svg width="160" height="39" viewBox="0 0 160 39" fill="none" xmlns="http://www.w3.org/2000/svg">
<g clip-path="url(#clip0_2_57)">
<path fill-rule="evenodd" clip-rule="evenodd" d="M28.048 29.9851C33.5104 29.963 37.8746 25.4321 37.8746 19.9522C37.8838 17.4335 36.9422 15.0045 35.2387 13.1525C33.5352 11.3005 31.1958 10.1624 28.6899 9.96669C28.4319 9.94462 28.306 9.92885 28.0826 9.91309H27.3747C27.0731 9.91392 26.7842 10.0345 26.5713 10.2485C26.3584 10.4625 26.2388 10.7523 26.2388 11.0545V13.8733C26.2388 14.1743 26.3581 14.463 26.5706 14.6759C26.783 14.8887 27.0711 15.0083 27.3715 15.0083H28.5011C28.8018 15.0083 29.0903 14.8888 29.3032 14.6761C29.5161 14.4633 29.6362 14.1746 29.637 13.8733V13.4381C31.0766 13.8138 32.3514 14.6567 33.2623 15.8353C34.1731 17.0138 34.6687 18.4616 34.6714 19.9522C34.6777 20.8257 34.5113 21.6918 34.1821 22.5006C33.8528 23.3094 33.3671 24.0449 32.7529 24.6648C32.1387 25.2847 31.4081 25.7766 30.6034 26.1123C29.7986 26.448 28.9355 26.6208 28.0638 26.6208H21.711C21.4116 26.62 21.1241 26.7379 20.9113 26.9488C20.6984 27.1597 20.5776 27.4465 20.5751 27.7464V37.6248C20.5759 37.9253 20.6956 38.2132 20.908 38.4254C21.1203 38.6376 21.4079 38.7567 21.7078 38.7567H22.8406C23.1404 38.7567 23.4281 38.6376 23.6404 38.4254C23.8528 38.2132 23.9725 37.9253 23.9733 37.6248V29.9851H28.0638H28.048Z" fill="url(#paint0_linear_2_57)"/>
<path fill-rule="evenodd" clip-rule="evenodd" d="M32.9511 32.6177C32.7387 32.4044 32.4505 32.2845 32.1499 32.2842C31.8492 32.2839 31.5608 32.4033 31.348 32.6161C31.1352 32.8289 31.0155 33.1177 31.0152 33.419C31.0149 33.7203 31.134 34.0093 31.3464 34.2226L35.4904 38.3719C35.5947 38.481 35.7197 38.5682 35.8581 38.6282C35.9964 38.6883 36.1454 38.7201 36.2962 38.7217C36.447 38.7233 36.5966 38.6947 36.7362 38.6376C36.8758 38.5806 37.0026 38.4961 37.1093 38.3893C37.2159 38.2824 37.3002 38.1553 37.3571 38.0154C37.4141 37.8755 37.4426 37.7256 37.441 37.5745C37.4394 37.4234 37.4077 37.2741 37.3477 37.1355C37.2878 36.9968 37.2008 36.8716 37.0919 36.767L32.9511 32.6177Z" fill="url(#paint1_linear_2_57)"/>
<path fill-rule="evenodd" clip-rule="evenodd" d="M27.9375 21.8881C28.3881 21.8881 28.8203 21.7088 29.139 21.3895C29.4576 21.0702 29.6366 20.6371 29.6366 20.1855C29.6366 19.734 29.4576 19.3009 29.139 18.9816C28.8203 18.6623 28.3881 18.4829 27.9375 18.4829H9.96465C9.51402 18.4829 9.08184 18.6623 8.76319 18.9816C8.44455 19.3009 8.26553 19.734 8.26553 20.1855C8.26553 20.6371 8.44455 21.0702 8.76319 21.3895C9.08184 21.7088 9.51402 21.8881 9.96465 21.8881H13.6272V37.6279C13.6272 37.929 13.7465 38.2177 13.959 38.4305C14.1714 38.6434 14.4595 38.763 14.7599 38.763H15.8927C16.0414 38.763 16.1887 38.7336 16.3262 38.6766C16.4636 38.6196 16.5885 38.5359 16.6936 38.4305C16.7988 38.3251 16.8823 38.2 16.9392 38.0623C16.9961 37.9246 17.0254 37.777 17.0254 37.6279V21.8881H27.9375Z" fill="url(#paint2_linear_2_57)"/>
<path fill-rule="evenodd" clip-rule="evenodd" d="M9.21842 26.7192C7.59814 26.5205 6.10456 25.7403 5.01409 24.5231C3.92362 23.3059 3.3101 21.734 3.28707 20.0985C3.26404 18.4629 3.83305 16.8743 4.88881 15.6268C5.94457 14.3792 7.41559 13.5571 9.02963 13.3126H9.102H11.185C11.3292 13.3118 11.4718 13.2824 11.6045 13.2261C11.7373 13.1697 11.8576 13.0876 11.9586 12.9844C12.0595 12.8812 12.139 12.759 12.1926 12.6249C12.2461 12.4907 12.2726 12.3473 12.2705 12.2028V9.97992C12.2809 8.44479 12.8086 6.9582 13.7679 5.7613C14.7273 4.56439 16.062 3.72739 17.5557 3.38606C19.0494 3.04473 20.6143 3.2191 21.9967 3.88088C23.379 4.54265 24.4977 5.65302 25.1712 7.03187C25.3275 7.36561 25.5922 7.63627 25.9221 7.79953C26.2519 7.96279 26.6273 8.00896 26.9868 7.93047C27.2214 7.87784 27.4413 7.77303 27.6301 7.62379C27.8189 7.47454 27.9719 7.28469 28.0776 7.06825C28.1833 6.85181 28.2392 6.61433 28.241 6.37335C28.2428 6.13238 28.1905 5.89408 28.088 5.67608C27.1074 3.6259 25.4617 1.96969 23.42 0.97816C21.3784 -0.0133681 19.0614 -0.281568 16.8479 0.217399C14.6344 0.716367 12.6552 1.95299 11.234 3.72513C9.81268 5.49728 9.03335 7.70013 9.02334 9.97361V10.0651C6.57043 10.3058 4.29356 11.4488 2.63255 13.2734C0.971538 15.098 0.0442335 17.4747 0.0297588 19.9444C0.0152842 22.4141 0.914666 24.8015 2.55418 26.6456C4.19369 28.4896 6.457 29.6594 8.90691 29.9289C8.96871 29.9336 9.03077 29.9336 9.09256 29.9289C9.49794 29.9309 9.88897 29.7787 10.1868 29.5031C10.4846 29.2275 10.667 28.849 10.6973 28.4439C10.7172 28.0215 10.5751 27.6075 10.3001 27.2868C10.0252 26.9661 9.63811 26.763 9.21842 26.7192V26.7192Z" fill="url(#paint3_linear_2_57)"/>
<path d="M55.8502 11.6661V14.2673H51.678V25.5866H48.6133V14.261H44.4379V11.6661H55.8502Z" fill="#2B2D33"/>
<path d="M58.3295 11.6661H65.2518C66.6299 11.6661 67.7553 11.9919 68.628 12.6435C69.5006 13.2951 69.9359 14.2862 69.9338 15.6168C69.9502 16.3653 69.7467 17.1021 69.3485 17.7356C68.9664 18.3355 68.3982 18.793 67.7312 19.0378C68.9269 19.2837 69.6097 20.3652 69.7796 22.2822C69.7796 22.3453 69.7922 22.5471 69.8174 22.8876C69.8425 23.225 69.8677 23.4961 69.896 23.6979C69.9243 23.8997 69.9527 24.1456 69.9936 24.4326C70.0221 24.6797 70.0812 24.9222 70.1698 25.1546C70.2247 25.3179 70.3175 25.466 70.4404 25.5866H67.2939C67.1769 25.3349 67.0984 25.0671 67.061 24.792C67.0075 24.4767 66.9635 24.0637 66.9226 23.5623C66.8817 23.061 66.8659 22.7835 66.8659 22.7299C66.7589 21.7525 66.5167 21.0746 66.1328 20.6994C65.7489 20.3242 65.0693 20.1319 64.0939 20.1319H61.3564V25.5866H58.3326L58.3295 11.6661ZM61.3564 14.0655V17.9153H64.2449C64.9277 17.951 65.6085 17.8133 66.224 17.5149C66.6981 17.2479 66.9362 16.7224 66.9383 15.9384C66.9383 15.2069 66.7055 14.7119 66.2461 14.4533C65.6673 14.1663 65.0252 14.0317 64.3802 14.0624L61.3564 14.0655Z" fill="#2B2D33"/>
<path d="M83.6974 11.6661V14.1696H76.3031V17.1996H83.0681V19.6022H76.2905V23.0169H83.8201V25.5803H73.2667V11.6661H83.6974Z" fill="#2B2D33"/>
<path d="M97.3809 11.6661V14.1696H89.9898V17.1996H96.7768V19.6022H89.9898V23.0169H97.5194V25.5803H86.966V11.6661H97.3809Z" fill="#2B2D33"/>
<path d="M110.496 22.9601V25.5803H100.663V11.6661H103.706V22.9601H110.496Z" fill="#2B2D33"/>
<path d="M122.805 22.9601V25.5803H112.96V11.6661H116.006V22.9601H122.805Z" fill="#2B2D33"/>
<path d="M128.343 11.6661V25.5803H125.281V11.6661H128.343Z" fill="#2B2D33"/>
<path d="M138.241 11.3287C140.268 11.3287 141.909 12.0024 143.166 13.3498C144.422 14.6972 145.051 16.4608 145.054 18.6405C145.054 20.8161 144.424 22.5713 143.166 23.906C141.907 25.2408 140.258 25.9093 138.219 25.9114C136.166 25.9114 134.508 25.2429 133.245 23.906C131.982 22.5692 131.353 20.814 131.357 18.6405C131.357 16.4376 131.986 14.6678 133.245 13.3309C134.503 11.994 136.169 11.3266 138.241 11.3287ZM138.2 13.8291C137.674 13.8115 137.151 13.9195 136.675 14.1443C136.198 14.3691 135.782 14.7041 135.46 15.1218C134.778 15.9794 134.437 17.1355 134.437 18.5901C134.437 20.0888 134.775 21.2617 135.45 22.1088C135.783 22.5269 136.209 22.8612 136.693 23.0851C137.178 23.309 137.708 23.4163 138.241 23.3984C138.766 23.4169 139.287 23.3085 139.761 23.0824C140.235 22.8563 140.647 22.5191 140.963 22.0994C141.624 21.2397 141.955 20.0667 141.957 18.5806C141.96 17.0945 141.621 15.9384 140.941 15.1123C140.618 14.6968 140.201 14.3638 139.725 14.1408C139.248 13.9177 138.726 13.8109 138.2 13.8291V13.8291Z" fill="#2B2D33"/>
<path d="M148.021 25.5803V11.6661H151.121L156.838 20.9926V11.6661H159.764V25.5803H156.722L150.967 16.2348V25.5803H148.021Z" fill="#2B2D33"/>
</g>
<defs>
<linearGradient id="paint0_linear_2_57" x1="15.9749" y1="33.4912" x2="35.8009" y2="13.7028" gradientUnits="userSpaceOnUse">
<stop stop-color="#2E815D"/>
<stop offset="1" stop-color="#88C540"/>
</linearGradient>
<linearGradient id="paint1_linear_2_57" x1="29.3064" y1="37.5465" x2="33.2169" y2="31.0508" gradientUnits="userSpaceOnUse">
<stop stop-color="#2E815D"/>
<stop offset="1" stop-color="#88C540"/>
</linearGradient>
<linearGradient id="paint2_linear_2_57" x1="2.58266" y1="35.0608" x2="14.5796" y2="14.0223" gradientUnits="userSpaceOnUse">
<stop stop-color="#2E815D"/>
<stop offset="1" stop-color="#88C540"/>
</linearGradient>
<linearGradient id="paint3_linear_2_57" x1="-7.47222" y1="24.4632" x2="11.2052" y2="-4.80452" gradientUnits="userSpaceOnUse">
<stop stop-color="#2E815D"/>
<stop offset="1" stop-color="#88C540"/>
</linearGradient>
<clipPath id="clip0_2_57">
<rect width="160" height="38.8166" fill="white"/>
</clipPath>
</defs>
</svg>
