<svg width="10" height="10" viewBox="0 0 10 10" fill="none" xmlns="http://www.w3.org/2000/svg">
<path d="M5 4.79166C4.72373 4.79166 4.45878 4.68192 4.26343 4.48656C4.06808 4.29121 3.95833 4.02626 3.95833 3.74999C3.95833 3.47373 4.06808 3.20878 4.26343 3.01343C4.45878 2.81808 4.72373 2.70833 5 2.70833C5.27626 2.70833 5.54121 2.81808 5.73656 3.01343C5.93192 3.20878 6.04166 3.47373 6.04166 3.74999C6.04166 3.88679 6.01472 4.02224 5.96237 4.14862C5.91002 4.275 5.83329 4.38984 5.73656 4.48656C5.63984 4.58329 5.525 4.66002 5.39862 4.71237C5.27224 4.76472 5.13679 4.79166 5 4.79166ZM5 0.833328C4.22645 0.833328 3.48458 1.14062 2.9376 1.6876C2.39062 2.23458 2.08333 2.97645 2.08333 3.74999C2.08333 5.9375 5 9.16666 5 9.16666C5 9.16666 7.91666 5.9375 7.91666 3.74999C7.91666 2.97645 7.60937 2.23458 7.06239 1.6876C6.51541 1.14062 5.77354 0.833328 5 0.833328Z" fill="url(#paint0_linear_2_54)"/>
<defs>
<linearGradient id="paint0_linear_2_54" x1="0.532164" y1="7.64538" x2="6.19411" y2="1.0498" gradientUnits="userSpaceOnUse">
<stop stop-color="#2E815D"/>
<stop offset="1" stop-color="#88C540"/>
</linearGradient>
</defs>
</svg>
