<svg width="67" height="36" viewBox="0 0 67 36" fill="none" xmlns="http://www.w3.org/2000/svg">
<path fill-rule="evenodd" clip-rule="evenodd" d="M25.8399 1.19713C17.6614 2.998 15.5207 8.10633 20.0581 14.9949C21.3773 16.9975 21.3827 16.956 19.6628 17.9716C19.064 18.3251 17.9074 19.0193 17.0926 19.5143C16.155 20.0836 14.7686 20.6618 13.3172 21.0888C7.86093 22.694 3.35681 25.6032 2.13407 28.3115C1.7811 29.0936 1.46141 29.4646 0.923536 29.7174C0.143262 30.0836 -0.207388 30.6292 0.125571 30.9587C0.370078 31.2006 1.06548 30.9787 0.898896 30.7119C0.834663 30.6092 1.01473 30.3741 1.29925 30.1894C1.92894 29.7812 2.04204 29.7728 2.04204 30.1348C2.04204 30.9587 4.58188 32.6647 6.19339 32.9236C7.55787 33.1426 6.47054 33.9108 3.14769 35.0756C2.42385 35.3294 1.83144 35.6127 1.83144 35.7052C1.83144 36.0893 2.28444 36.0893 3.3427 35.7052C4.88914 35.144 6.44106 34.8845 10.3155 34.5394C14.5395 34.163 15.4733 33.7532 11.7297 33.9187C10.2818 33.9827 8.57592 34.0807 7.93885 34.1363L6.78055 34.2378L7.41235 33.8804C7.9338 33.5853 8.65068 33.519 11.5191 33.5007C15.5596 33.4752 19.1893 33.187 25.2081 32.4142C29.7804 31.8273 37.2688 31.64 41.477 32.0074C43.0369 32.1437 43.3197 32.121 43.3197 31.8598C43.3197 31.2048 31.2357 30.9185 27.7387 31.4907C23.3217 32.2135 9.17592 33.1747 9.62365 32.7216C9.68157 32.6631 10.6293 32.1181 11.7297 31.5108C14.8626 29.7814 24.1989 24.4154 24.8193 23.9874C25.5533 23.4811 25.5194 23.4668 25.9997 24.4876C26.8318 26.2551 26.8735 26.1682 24.9935 26.5864C23.7469 26.8636 22.9252 26.9239 21.8364 26.8176C20.8407 26.7205 20.3643 26.7463 20.3643 26.8972C20.3643 27.2517 20.6254 27.3373 22.9959 27.7604C25.1529 28.1454 27.3141 29.0999 27.3141 29.6674C27.3141 29.7701 27.463 29.8541 27.6452 29.8541C27.9259 29.8541 27.9524 29.6722 27.8195 28.6558C27.5386 26.507 27.3853 26.7048 29.7817 26.1252L31.9336 25.6048L34.2043 26.6813C37.8593 28.4136 41.1375 29.4373 43.0312 29.4373C44.4978 29.4373 48.5963 28.8139 49.221 28.4959C49.5131 28.3471 50.6398 28.0739 51.725 27.8886C52.8534 27.6958 54.2943 27.2773 55.0902 26.9114C58.5327 25.3281 60.1244 24.9907 64.2155 24.9767C68.0573 24.9634 67.8749 24.5851 63.9702 24.4686C59.9987 24.35 58.352 24.6899 54.6387 26.3949C52.4733 27.3892 51.8537 27.4074 52.8833 26.4464C54.9194 24.5461 54.9546 21.8935 52.9928 18.2042C49.2915 11.2437 44.5159 7.34584 39.6892 7.34584C39.2351 7.34584 38.2415 7.0995 37.481 6.79856C30.4405 4.01108 25.3071 11.7106 29.1476 19.2979C29.7798 20.5471 29.6553 20.7531 28.8778 19.7444C28.5562 19.3269 27.6934 18.562 26.9603 18.0446C25.4208 16.9573 25.126 16.33 25.8142 15.6051C26.6162 14.7602 26.004 13.5256 24.5578 13.0713C23.7539 12.8189 24.0382 9.46516 24.9975 7.88646C26.4119 5.55894 31.5554 2.61598 32.8213 3.40981C33.2697 3.69096 33.6896 3.62635 33.5614 3.29581C33.1989 2.36089 36.8151 2.84502 39.073 4.03358C40.6051 4.84013 41.0604 4.73718 39.7747 3.87498C38.6768 3.13867 36.3792 2.55242 34.5914 2.55242C32.8857 2.55242 31.3155 2.00972 31.3155 1.42013C31.3155 1.21463 31.0542 1.13565 30.4205 1.14919C29.9281 1.15982 29.0042 1.10709 28.3671 1.03207C27.6317 0.945368 26.709 1.0056 25.8399 1.19713ZM28.7536 1.43784C29.1208 1.53517 29.1741 1.6129 28.9642 1.74483C28.7883 1.85528 29.0174 1.90968 29.5757 1.8903C30.1046 1.87175 30.7698 2.01972 31.2079 2.25314C31.9936 2.67183 32.1625 2.96924 31.6148 2.96924C28.1464 2.96924 23.5233 7.59718 23.5233 11.0693C23.5233 12.5377 23.5625 12.509 22.4848 11.8358C18.6894 9.46474 20.5187 5.90115 27.1673 2.71393C28.7517 1.95449 28.5973 1.73441 26.9439 2.39527C24.5782 3.34083 21.1593 5.97055 20.1356 7.63199C19.1563 9.22132 20.0155 11.0276 22.4282 12.4519C23.5633 13.1221 24.2273 14.6635 23.649 15.2863C23.478 15.4703 23.4879 15.4959 23.6867 15.3846C23.8674 15.2833 24.0344 15.4611 24.1968 15.9271C24.3295 16.3083 24.8008 17.3045 25.2443 18.1411C26.2339 20.008 26.2459 19.8861 25.0796 19.8098C24.134 19.7479 24.0812 19.707 23.053 18.2373L21.9973 16.7285L22.497 16.2973L22.9968 15.8658L22.452 16.1926C21.8117 16.5765 21.7873 16.5567 20.4258 14.536C16.6984 9.00416 17.4001 5.6002 22.8462 2.79709C24.9179 1.73066 27.5622 1.12231 28.7536 1.43784ZM36.6172 7.17328L37.3909 7.40232L36.3708 7.90542C34.0055 9.07189 32.7069 11.593 32.7461 14.9434C32.776 17.5262 32.843 18.3836 33.0064 18.2836C33.0677 18.2461 33.435 18.8207 33.8225 19.5605C34.2102 20.3002 34.9418 21.3618 35.4485 21.9195C36.5807 23.1656 36.5875 23.0689 35.3239 23.7025C33.959 24.3869 33.8634 24.3748 32.895 23.3934C32.3205 22.8111 32.1769 22.5598 32.4186 22.5598C33.4641 22.5598 32.9866 21.604 31.7186 21.1584C30.4518 20.7132 30.312 20.4092 31.1144 19.8438C31.4566 19.6026 31.7367 19.3015 31.7367 19.1748C31.7367 19.0478 31.5236 19.1341 31.2629 19.3663C30.4167 20.1201 30.2985 20.112 29.8643 19.27C28.473 16.5713 28.0605 13.064 28.9383 11.3973C29.176 10.9457 29.5404 10.1729 29.748 9.68024C30.1804 8.6532 31.1184 7.7587 32.1693 7.37085C32.5684 7.22351 33.0372 7.01655 33.2109 6.9111C33.5744 6.69019 35.4812 6.83691 36.6172 7.17328ZM42.3901 8.43999C42.4767 8.52607 42.7619 8.5963 43.0238 8.5963C43.2858 8.5963 43.6424 8.73698 43.8161 8.90892C43.9899 9.08085 44.2624 9.22153 44.4218 9.22153C45.5527 9.22153 48.7859 12.2804 50.7973 15.2531C54.6928 21.0107 54.9358 24.5232 51.5904 26.7161C50.0396 27.7327 48.4445 27.5974 49.2513 26.5177C49.813 25.7657 49.9665 24.3396 49.6361 22.9424C49.3139 21.5802 48.9278 20.8483 49.1595 22.0387C49.615 24.3786 48.8718 27.1519 47.792 27.1412C45.8739 27.1223 40.8389 25.4014 38.7392 24.0474C37.4425 23.2113 37.4337 23.18 38.2919 22.4656C39.1621 21.7407 38.9708 21.6007 38.0012 22.2526C37.0291 22.9063 37.2393 22.9978 35.8506 21.3178C30.7785 15.1829 34.1542 5.67377 40.289 8.81471L41.5296 9.44974L40.5956 8.63486L39.6618 7.81977L40.9473 8.05173C41.6545 8.17927 42.3038 8.35392 42.3901 8.43999ZM25.5095 14.4987C25.6782 14.7634 25.6219 14.9484 25.266 15.3006C24.8305 15.7318 24.7947 15.7362 24.6555 15.3777C24.5599 15.131 24.6313 14.9074 24.8581 14.7434C25.0506 14.6041 25.2081 14.4186 25.2081 14.3311C25.2081 14.2438 25.0809 14.2767 24.9255 14.4045C24.5849 14.6842 24.3657 14.5081 24.3657 13.9547C24.3657 13.4868 25.0813 13.8272 25.5095 14.4987ZM22.3351 18.2842C22.7569 18.9128 23.1021 19.4615 23.1021 19.5032C23.1021 19.5451 22.1375 19.642 20.9586 19.7183C19.7794 19.7948 18.4291 19.9123 17.9575 19.9794L17.1 20.1014L18.2288 19.2986C21.7873 16.7678 21.3846 16.8673 22.3351 18.2842ZM27.9394 19.7383C28.1696 20.0128 28.1291 20.0588 27.6584 20.0588C27.1722 20.0588 26.0505 18.8138 26.0505 18.274C26.0505 18.1194 27.5685 19.2961 27.9394 19.7383ZM32.0526 18.8084C31.981 18.923 32.0172 19.0168 32.1331 19.0168C32.2489 19.0168 32.4022 18.923 32.4738 18.8084C32.5454 18.6938 32.5092 18.6 32.3934 18.6C32.2775 18.6 32.1242 18.6938 32.0526 18.8084ZM24.352 21.3193C25.3496 22.9239 25.3109 23.1033 23.7655 24.0409C23.0299 24.4871 22.3648 24.8523 22.2875 24.8523C22.2102 24.8523 21.8168 25.0723 21.4135 25.3412C21.0102 25.6103 20.2537 26.0652 19.7325 26.3524C19.2112 26.6396 17.0315 27.859 14.8887 29.0621C8.07026 32.8908 8.64457 32.6268 7.46963 32.4726C5.12102 32.1643 2.67384 30.7496 2.67384 29.7003C2.67384 29.1536 13.8555 21.7636 15.594 21.1611C16.9098 20.7053 19.6973 20.3112 21.7677 20.2885L23.6977 20.2673L24.352 21.3193ZM26.7545 20.8658C27.6007 21.5957 27.5904 21.8928 26.7038 22.3405L25.8749 22.759L25.2256 21.6205C24.8684 20.9944 24.5763 20.4325 24.5763 20.3721C24.5763 20.1385 26.3868 20.5488 26.7545 20.8658ZM28.6838 20.8939C28.917 21.267 28.1378 21.3802 27.7791 21.0252C27.46 20.7093 27.4758 20.6841 27.9937 20.6841C28.3012 20.6841 28.6118 20.7785 28.6838 20.8939ZM30.3678 21.3093C30.4394 21.4239 30.4032 21.5177 30.2874 21.5177C30.1715 21.5177 30.0182 21.4239 29.9466 21.3093C29.875 21.1947 29.9112 21.1009 30.0271 21.1009C30.1429 21.1009 30.2962 21.1947 30.3678 21.3093ZM30.8176 22.5283C31.2968 22.7663 31.9892 23.3363 32.3567 23.7954L33.0245 24.6299L32.4961 24.7612C31.5368 24.9994 27.9672 21.9691 28.7165 21.5525C29.0128 21.3879 29.2036 21.4264 29.5254 21.7163C29.7571 21.9252 30.3385 22.2905 30.8176 22.5283ZM13.2039 21.8153C13.2039 21.8645 12.0428 22.6306 10.624 23.518C9.20519 24.4052 6.91512 25.8658 5.53506 26.7638C2.85032 28.5107 2.49651 28.6251 3.39851 27.4551C4.72803 25.7301 8.15156 23.5687 11.5191 22.3282C13.3306 21.6609 13.2039 21.6994 13.2039 21.8153ZM31.9473 21.818C31.9473 21.8687 31.8525 21.9679 31.7367 22.0387C31.6209 22.1096 31.5261 22.0681 31.5261 21.9468C31.5261 21.8255 31.6209 21.7261 31.7367 21.7261C31.8525 21.7261 31.9473 21.7674 31.9473 21.818ZM29.0642 23.358C29.6652 23.9117 30.3868 24.518 30.6675 24.7053C31.2584 25.1001 31.2888 25.0834 28.9639 25.6392L27.3495 26.0252L26.7714 24.6038C26.4534 23.8223 26.2322 23.1521 26.2798 23.1148C27.5329 22.1313 27.753 22.1504 29.0642 23.358ZM38.0017 24.3062C39.836 25.5975 43.6388 27.1562 45.7012 27.4622C47.0278 27.6591 47.0922 27.8713 45.9565 28.3006C42.7484 29.5129 32.9555 25.5427 35.6855 24.1366C36.9493 23.4855 36.8223 23.4761 38.0017 24.3062ZM34.2473 25.3527C34.4303 25.5131 35.1484 25.9818 35.8434 26.3941C36.5384 26.8063 36.9866 27.1439 36.8393 27.1442C36.4255 27.145 33.0003 25.4489 33.0003 25.2432C33.0003 24.954 33.8813 25.0313 34.2473 25.3527ZM26.9733 27.5949C27.1507 28.4726 27.101 28.4899 25.9675 27.9449C25.0158 27.4874 25.0032 27.4689 25.4682 27.2133C26.3293 26.74 26.8261 26.8661 26.9733 27.5949ZM48.5673 28.0532C48.3192 28.265 47.2986 28.3913 47.4212 28.1952C47.4957 28.076 47.8036 27.9784 48.1058 27.9784C48.4078 27.9784 48.6155 28.0122 48.5673 28.0532Z" fill="#2B2D33"/>
</svg>
